<?xml version="1.0" encoding="UTF-8"?>
<mxfile host="app.diagrams.net" agent="Mozilla/5.0 (Macintosh; Intel Mac OS X 10_15_7) AppleWebKit/537.36 (KHTML, like Gecko) Chrome/139.0.0.0 Safari/537.36" version="28.1.0">
  <diagram id="YcQgEqZ2ul_Bj4KDzMLv" name="Context Diagram - Система передачи ставок">
    <mxGraphModel dx="1216" dy="704" grid="1" gridSize="10" guides="1" tooltips="1" connect="1" arrows="1" fold="1" page="1" pageScale="1" pageWidth="827" pageHeight="1169" math="0" shadow="0">
      <root>
        <mxCell id="0" />
        <mxCell id="1" parent="0" />
        <mxCell id="fZqWAfGyGLqZRthqomRy-1" value="Диаграмма контекста - Система передачи ставок в кол-центр" style="text;html=1;align=center;verticalAlign=middle;whiteSpace=wrap;rounded=0;fontSize=24;fontStyle=1;" vertex="1" parent="1">
          <mxGeometry x="400" y="20" width="800" height="60" as="geometry" />
        </mxCell>
        <mxCell id="fZqWAfGyGLqZRthqomRy-2" value="Система передачи ставок&lt;div&gt;(Rates Transfer System)&lt;/div&gt;" style="rounded=1;whiteSpace=wrap;html=1;fillColor=#dae8fc;strokeColor=#6c8ebf;fontSize=18;fontStyle=1;" vertex="1" parent="1">
          <mxGeometry x="600" y="200" width="400" height="100" as="geometry" />
        </mxCell>
        <mxCell id="fZqWAfGyGLqZRthqomRy-3" value="Сотрудник&lt;div&gt;бэк-офиса&lt;/div&gt;" style="shape=umlActor;verticalLabelPosition=bottom;verticalAlign=top;html=1;outlineConnect=0;fontSize=14;" vertex="1" parent="1">
          <mxGeometry x="100" y="220" width="30" height="60" as="geometry" />
        </mxCell>
        <mxCell id="fZqWAfGyGLqZRthqomRy-4" value="Оператор&lt;div&gt;кол-центра&lt;/div&gt;" style="shape=umlActor;verticalLabelPosition=bottom;verticalAlign=top;html=1;outlineConnect=0;fontSize=14;" vertex="1" parent="1">
          <mxGeometry x="100" y="350" width="30" height="60" as="geometry" />
        </mxCell>
        <mxCell id="fZqWAfGyGLqZRthqomRy-5" value="Оператор&lt;div&gt;партнерского&lt;/div&gt;&lt;div&gt;кол-центра&lt;/div&gt;" style="shape=umlActor;verticalLabelPosition=bottom;verticalAlign=top;html=1;outlineConnect=0;fontSize=14;" vertex="1" parent="1">
          <mxGeometry x="100" y="500" width="30" height="60" as="geometry" />
        </mxCell>
        <mxCell id="fZqWAfGyGLqZRthqomRy-6" value="АБС&lt;div&gt;(Delphi + Oracle)&lt;/div&gt;" style="rounded=1;whiteSpace=wrap;html=1;fillColor=#e1d5e7;strokeColor=#9673a6;fontSize=14;" vertex="1" parent="1">
          <mxGeometry x="1166" y="200" width="150" height="80" as="geometry" />
        </mxCell>
        <mxCell id="fZqWAfGyGLqZRthqomRy-7" value="Система кол-центра&lt;div&gt;(React.js + Spring Boot)&lt;/div&gt;" style="rounded=1;whiteSpace=wrap;html=1;fillColor=#e1d5e7;strokeColor=#9673a6;fontSize=14;" vertex="1" parent="1">
          <mxGeometry x="827" y="430" width="150" height="80" as="geometry" />
        </mxCell>
        <mxCell id="fZqWAfGyGLqZRthqomRy-8" value="Партнерский&lt;div&gt;кол-центр&lt;/div&gt;" style="rounded=1;whiteSpace=wrap;html=1;fillColor=#e1d5e7;strokeColor=#9673a6;fontSize=14;" vertex="1" parent="1">
          <mxGeometry x="1030" y="430" width="150" height="80" as="geometry" />
        </mxCell>
        <mxCell id="fZqWAfGyGLqZRthqomRy-9" value="Изменяет&lt;div&gt;ставки&lt;/div&gt;" style="edgeStyle=orthogonalEdgeStyle;rounded=0;orthogonalLoop=1;jettySize=auto;html=1;fontSize=12;" edge="1" parent="1" source="fZqWAfGyGLqZRthqomRy-3" target="fZqWAfGyGLqZRthqomRy-2">
          <mxGeometry relative="1" as="geometry" />
        </mxCell>
        <mxCell id="fZqWAfGyGLqZRthqomRy-10" value="Получает&lt;div&gt;ставки&lt;/div&gt;" style="edgeStyle=orthogonalEdgeStyle;rounded=0;orthogonalLoop=1;jettySize=auto;html=1;fontSize=12;" edge="1" parent="1" source="fZqWAfGyGLqZRthqomRy-4" target="fZqWAfGyGLqZRthqomRy-2">
          <mxGeometry relative="1" as="geometry" />
        </mxCell>
        <mxCell id="fZqWAfGyGLqZRthqomRy-11" value="Получает&lt;div&gt;ставки&lt;/div&gt;" style="edgeStyle=orthogonalEdgeStyle;rounded=0;orthogonalLoop=1;jettySize=auto;html=1;fontSize=12;" edge="1" parent="1" source="fZqWAfGyGLqZRthqomRy-5" target="fZqWAfGyGLqZRthqomRy-2">
          <mxGeometry relative="1" as="geometry" />
        </mxCell>
        <mxCell id="fZqWAfGyGLqZRthqomRy-12" value="Polling&lt;div&gt;изменений&lt;/div&gt;" style="edgeStyle=orthogonalEdgeStyle;rounded=0;orthogonalLoop=1;jettySize=auto;html=1;fontSize=12;exitX=1;exitY=0.25;exitDx=0;exitDy=0;entryX=0;entryY=0.25;entryDx=0;entryDy=0;" edge="1" parent="1" source="fZqWAfGyGLqZRthqomRy-2" target="fZqWAfGyGLqZRthqomRy-6">
          <mxGeometry relative="1" as="geometry" />
        </mxCell>
        <mxCell id="fZqWAfGyGLqZRthqomRy-13" value="REST API&lt;div&gt;ставки&lt;/div&gt;" style="edgeStyle=orthogonalEdgeStyle;rounded=0;orthogonalLoop=1;jettySize=auto;html=1;fontSize=12;exitX=0.75;exitY=1;exitDx=0;exitDy=0;" edge="1" parent="1" source="fZqWAfGyGLqZRthqomRy-2" target="fZqWAfGyGLqZRthqomRy-7">
          <mxGeometry relative="1" as="geometry" />
        </mxCell>
        <mxCell id="fZqWAfGyGLqZRthqomRy-14" value="SFTP&lt;div&gt;файлы&lt;/div&gt;" style="edgeStyle=orthogonalEdgeStyle;rounded=0;orthogonalLoop=1;jettySize=auto;html=1;fontSize=12;" edge="1" parent="1" source="fZqWAfGyGLqZRthqomRy-2" target="fZqWAfGyGLqZRthqomRy-8">
          <mxGeometry relative="1" as="geometry" />
        </mxCell>
      </root>
    </mxGraphModel>
  </diagram>
</mxfile>
